<svg xmlns="http://www.w3.org/2000/svg" viewBox="0 0 512 512">
  <defs>
    <linearGradient id="bg" x1="0" y1="0" x2="1" y2="1">
      <stop offset="0" stop-color="#ff7b32"/>
      <stop offset="1" stop-color="#409660"/>
    </linearGradient>
  </defs>
  <rect width="512" height="512" rx="118" fill="#fffaf3"/>
  <circle cx="256" cy="256" r="184" fill="url(#bg)"/>
  <path d="M256 118c-39 0-70 31-70 70 0 22 10 42 27 55-17 14-27 34-27 57 0 39 31 70 70 70s70-31 70-70c0-23-10-43-27-57 17-13 27-33 27-55 0-39-31-70-70-70Z" fill="none" stroke="#fff" stroke-width="20" opacity=".28"/>
  <text x="256" y="323" fill="#fff" font-family="serif" font-size="190" font-weight="700" text-anchor="middle">穴</text>
</svg>
